<svg width="914" height="400" fill="none" xmlns="http://www.w3.org/2000/svg">
  <path fill="#fff" d="M0 0h914v400H0z"/>
  <path d="M419.148 201.928c1.641.351 1.055 1.523-1.757 3.515a44.928 44.928 0 00-5.743 4.776c-1.699 1.699-2.548 2.842-2.548 3.427 0 .977-.635 2.491-1.905 4.542a34.843 34.843 0 01-4.453 5.742c-1.445 1.504-2.471 2.47-3.076 2.9-.586.449-1.182.674-1.787.674-.957 0-1.611-.303-1.963-.908-.469-.918-.117-2.295 1.055-4.131 1.172-1.836 3.31-4.365 6.416-7.588 1.66-1.719 2.646-2.822 2.959-3.311.332-.507.381-1.005.146-1.494-.137-.312-.488-.703-1.054-1.172a10.645 10.645 0 00-1.876-1.289c-2.734-1.582-4.296-2.978-4.687-4.189-.332-1.094.107-2.744 1.318-4.951 1.211-2.227 2.539-3.819 3.985-4.776.508-.312.898-.478 1.172-.498.273-.039.595.039.966.235.664.332.938.83.821 1.494-.098.644-.674 1.914-1.729 3.808-.898 1.661-1.572 2.676-2.021 3.047-.449.352-.928.264-1.436-.263a1.238 1.238 0 00-.293-.235c-.078-.039-.137-.029-.176.029a.745.745 0 00-.087.293c-.02.118-.03.293-.03.528 0 .664.254 1.25.762 1.758.508.488 1.416 1.064 2.725 1.728 1.25.645 2.255 1.416 3.017 2.315l1.172 1.406 5.625-4.805a28.879 28.879 0 012.842-1.904c.879-.508 1.426-.742 1.64-.703zm-18.603 21.123a43.599 43.599 0 003.281-3.926c1.094-1.484 1.641-2.383 1.641-2.695 0-.293-.635.234-1.905 1.582a7.858 7.858 0 01-.38.41c-2.227 2.461-3.721 4.375-4.483 5.742-.273.508-.293.713-.058.615.293-.136.927-.713 1.904-1.728zm34.717-21.387c.39.352.029 1.025-1.084 2.022-.645.566-2.129 1.669-4.453 3.31-2.325 1.621-3.965 2.656-4.922 3.106-2.617 1.171-4.658 1.113-6.123-.176-1.016-.879-1.416-2.08-1.201-3.604a15.24 15.24 0 012.255-6.064c1.289-2.188 2.559-3.701 3.809-4.541 1.25-.84 2.275-.86 3.076-.059.586.586.713 1.758.381 3.516-.312 1.738-.859 2.812-1.641 3.222-.449.235-.82.274-1.113.118-.293-.157-.439-.44-.439-.85 0-.43.136-.937.41-1.523.762-1.446.967-2.217.615-2.315-.332-.117-.957.469-1.875 1.758l-.439.645c-1.504 2.343-2.403 4.238-2.696 5.683-.293 1.426.059 2.295 1.055 2.608.664.234 1.592.068 2.783-.499 1.192-.566 3.194-1.787 6.006-3.662 2.129-1.425 3.525-2.295 4.189-2.607.665-.332 1.133-.361 1.407-.088zm14.619.088c.957-.117 1.533-.137 1.728-.059.196.059.293.323.293.791 0 .645-.429 1.133-1.289 1.465-.859.313-1.943.381-3.252.205-.996-.136-1.865-.488-2.607-1.054-.742-.586-1.484-1.475-2.227-2.666-.254-.411-.468-.586-.644-.528-.176.039-.615.401-1.319 1.084-.41.391-.996 1.192-1.757 2.403a48.722 48.722 0 00-2.11 3.75c-1.621 3.3-2.793 4.941-3.515 4.921-.254-.019-.459-.224-.616-.615-.136-.429.254-2.578 1.172-6.445.957-3.789 1.338-6.123 1.143-7.002-.156-.703-.039-1.279.351-1.729.411-.468.899-.605 1.465-.41.449.157.674 1.035.674 2.637v2.373l2.022-1.963c1.269-1.23 2.265-1.816 2.988-1.758.723.039 1.455.743 2.197 2.11.645 1.152 1.338 1.904 2.08 2.256.762.351 1.836.429 3.223.234zm25.84 1.143l.175.058c.137.02.235.088.293.205.079.098.098.254.059.469-.059.254-.391.674-.996 1.26-.586.586-1.563 1.357-2.93 2.314a43.284 43.284 0 01-4.599 2.725c-1.758.918-3.223 1.484-4.395 1.699-1.152.195-2.217.068-3.193-.381-1.621-.742-2.432-2.041-2.432-3.896v-1.407l-3.252 2.315c-1.426.996-2.441 1.631-3.047 1.904-.586.254-1.259.352-2.021.293-.547-.039-.987-.195-1.319-.469a1.706 1.706 0 01-.615-1.025 4.524 4.524 0 01-.058-1.26 8.36 8.36 0 01.293-1.318c.39-1.25 1.162-2.451 2.314-3.604 1.172-1.172 2.393-1.943 3.662-2.314.801-.234 1.445-.342 1.934-.322.488.019 1.162.185 2.021.498l2.022.732 2.256-1.758c1.894-1.484 3.037-1.865 3.427-1.142.078.156.118.351.118.586 0 .41-.723 1.338-2.168 2.783-1.25 1.191-2.159 2.451-2.725 3.779-.566 1.309-.606 2.256-.117 2.842.703.879 1.972 1.016 3.808.41 1.856-.605 4.58-2.06 8.174-4.365a24.574 24.574 0 011.67-.996c.527-.274.918-.449 1.172-.528.273-.097.43-.127.469-.087zm-18.692.38c.215-.351-.009-.586-.674-.703a3.886 3.886 0 00-2.607.381c-1.133.606-2.217 1.602-3.252 2.988-.918 1.231-1.201 1.983-.85 2.256a.482.482 0 00.264.059c.313 0 1.514-.762 3.604-2.285a42.411 42.411 0 002.314-1.67c.723-.547 1.123-.889 1.201-1.026zm31.7-19.541c6.953-.957 12.646-1.25 17.08-.879 4.453.352 6.679 1.299 6.679 2.842 0 .371-.097.625-.293.762-.175.117-.478.137-.908.059-.43-.098-1.025-.313-1.787-.645-.684-.312-1.553-.518-2.607-.615-1.055-.098-2.745-.137-5.069-.117-3.086.019-6.709.263-10.869.732-4.141.449-6.435.859-6.885 1.231-.371.312-1.767 3.164-4.189 8.554-2.422 5.391-4.092 9.346-5.01 11.865-1.543 4.278-2.725 8.262-3.545 11.954-.801 3.671-1.133 6.533-.996 8.584.078.839.068 1.377-.029 1.611-.098.234-.371.39-.821.469-.39.058-.683.009-.878-.147-.176-.137-.323-.439-.44-.908-.625-2.5-.029-7.041 1.787-13.623 1.836-6.602 4.424-13.545 7.764-20.83 1.074-2.324 1.611-3.838 1.611-4.541 0-.567.264-1.172.791-1.817.371-.429.508-.664.41-.703-.097-.058-.722-.01-1.875.147-1.445.215-4.697.84-9.755 1.875-5.04 1.015-8.633 1.787-10.782 2.314-2.695.625-4.101.567-4.218-.176-.02-.195.019-.42.117-.673.136-.371 2.217-1.036 6.24-1.993 4.004-.976 8.789-1.982 14.355-3.017l7.764-1.406 5.186-10.02c2.07-4.004 3.505-6.67 4.306-7.998.821-1.348 1.416-2.021 1.787-2.021 1.27 0 1.416 1.904.44 5.712-.508 1.914-1.123 3.614-1.846 5.098-.723 1.465-1.806 3.193-3.252 5.186l-2.431 3.398 2.168-.264zm8.818 17.93c.391.352.029 1.025-1.084 2.022-.645.566-2.129 1.669-4.453 3.31-2.324 1.621-3.965 2.656-4.922 3.106-2.617 1.171-4.658 1.113-6.123-.176-1.016-.879-1.416-2.08-1.201-3.604a15.227 15.227 0 012.256-6.064c1.289-2.188 2.558-3.701 3.808-4.541 1.25-.84 2.276-.86 3.076-.059.586.586.713 1.758.381 3.516-.312 1.738-.859 2.812-1.64 3.222-.45.235-.821.274-1.114.118-.293-.157-.439-.44-.439-.85 0-.43.137-.937.41-1.523.762-1.446.967-2.217.615-2.315-.332-.117-.957.469-1.875 1.758l-.439.645c-1.504 2.343-2.403 4.238-2.696 5.683-.293 1.426.059 2.295 1.055 2.608.664.234 1.592.068 2.783-.499 1.192-.566 3.194-1.787 6.006-3.662 2.129-1.425 3.526-2.295 4.19-2.607.664-.332 1.132-.361 1.406-.088zm21.474.234c.469-.293.899-.332 1.29-.117.507.254.449.742-.176 1.465a11.37 11.37 0 01-.469.44c-3.73 3.32-6.426 5.117-8.086 5.39-1.094.195-2.051.166-2.871-.088-.82-.254-1.553-.918-2.197-1.992-.274-.449-.703-1.387-1.289-2.812-.586-1.426-.879-2.149-.879-2.168-.137-.137-.498.088-1.084.673-.567.586-1.27 1.426-2.11 2.52a55 55 0 00-2.519 3.516 15.606 15.606 0 01-1.465 1.963c-.488.527-.82.791-.996.791-.449 0-.801-.586-1.055-1.758-.332-1.66-.058-3.916.821-6.768.878-2.871 2.519-6.836 4.921-11.894 1.446-3.028 3.497-7.53 6.153-13.506 1.738-3.907 2.92-6.426 3.545-7.559.625-1.152 1.162-1.728 1.611-1.728.664 0 1.172.507 1.523 1.523.372.996.459 2.207.264 3.633a20.17 20.17 0 01-.879 3.486c-.39 1.113-1.103 2.569-2.138 4.365a106.387 106.387 0 01-2.725 4.541c-.801 1.25-2.217 3.438-4.248 6.563-2.481 3.75-4.209 6.924-5.186 9.521l-1.318 3.692 3.018-3.311c.937-1.015 1.728-1.797 2.373-2.343.664-.547 1.24-.879 1.728-.997.508-.117.908-.009 1.201.323.313.332.567.888.762 1.67.313 1.269.674 2.363 1.084 3.281.43.898.85 1.553 1.26 1.963.429.41.81.703 1.142.879.352.156.664.215.938.175.547-.097 1.396-.527 2.549-1.289a74.181 74.181 0 003.486-2.519c1.191-.918 1.865-1.426 2.021-1.524z" fill="#333"/>
</svg>
